<?xml version="1.0" encoding="UTF-8"?>
<svg id="Layer_2" xmlns="http://www.w3.org/2000/svg" viewBox="0 0 500 500"><defs><style>.cls-1{fill:none;}.cls-1,.cls-2{opacity:.5;}.cls-3{fill:#0066b3;}.cls-2{fill:#e1f4fd;}</style></defs><rect class="cls-2" width="500" height="500" rx="42.58" ry="42.58"/><rect class="cls-1" width="500" height="500"/><g id="BACKGROUND"><g id="BACKGROUND-2"><g><g id="Layer_2-2"><g id="Layer_1-2"><polygon class="cls-3" points="298.94 349.18 285 349.18 285 393.05 316.46 393.05 316.46 380.89 298.94 380.89 298.94 349.18"/><rect class="cls-3" x="320.45" y="349.18" width="13.94" height="43.95"/><path class="cls-3" d="m367.81,363.63v7.48c-1.53-2.13-2.98-4.07-4.59-6.37l-11.4-15.55h-12.75v43.95h13.52v-22.02c1.53,2.13,2.98,4.07,4.59,6.37l11.48,15.64h12.75v-43.95h-13.52v14.45h-.08Z"/><polygon class="cls-3" points="412.61 369.66 427.14 349.18 410.57 349.18 400.03 365.07 400.03 349.18 386.08 349.18 386.08 393.05 400.03 393.05 400.03 374.94 411.34 393.05 428.25 393.05 412.61 369.66"/><path class="cls-3" d="m98.14,393.48h-14.28l-3.15-11.05c-.77-2.63-1.53-5.26-2.21-7.91-.77,2.8-1.53,5.53-2.3,8.16l-3.15,10.79h-13.94l-13.43-44.72h14.71l4.34,15.72c.69,2.55,1.36,5.18,2.04,7.83.69-2.55,1.44-5.26,2.21-7.91l4.68-15.72h10.29l4.51,15.72c.77,2.63,1.53,5.26,2.21,8.16.69-2.63,1.44-5.45,2.3-8.16l4.42-15.55h14.28l-13.69,44.46.17.17h-.01Zm-12.84-1.88h11.48l12.5-40.73h-10.29l-4.07,14.2c-1.11,4.07-2.13,7.74-3.15,11.31l-.17.42h-1.53v-.77c-1.02-3.74-2.04-7.56-3.07-11.14l-4.07-14.36h-7.74l-4.07,14.45c-1.11,3.82-2.21,7.74-3.07,11.05v.69h-1.88v-.77c-1.11-3.32-2.13-7.39-3.15-10.88l-4.07-14.53h-10.71l12.24,40.73h11.23l2.8-9.52c1.02-3.57,2.04-7.39,3.15-11.23v-.77h1.61v.77c.94,3.74,1.96,7.39,2.98,11.05l3.07,9.77v.28Z"/><path class="cls-3" d="m200.49,393.48h-16.07l-9.52-16.32h-.42v16.32h-14.03v-17.09h1.88v15.22h10.29v-16.32h3.49l9.52,16.32h11.56l-11.14-17.51,1.02-.42c4.51-1.53,7.48-5.87,7.31-10.71.17-4.42-2.3-8.5-6.37-10.29-3.65-1.53-7.66-2.21-11.65-2.04h-13.94v4.34h-1.88v-6.2h15.81c4.17-.17,8.33.6,12.24,2.21,4.68,2.13,7.66,6.89,7.39,11.98.17,5.1-2.72,9.86-7.39,11.9l11.98,18.54h-.08v.08h.01Z"/><path class="cls-3" d="m176.51,368.91h-4.07v-10.37h3.15c1.88,0,3.82.17,5.61.77,1.79.69,2.98,2.46,2.98,4.42,0,1.61-.77,3.23-2.21,4.07-1.69.85-3.57,1.27-5.45,1.11h-.01Zm-2.04-1.88h2.04c1.44.17,2.98,0,4.26-.77.94-.5,1.44-1.53,1.27-2.55.08-1.11-.5-2.21-1.53-2.72-1.53-.5-3.23-.69-4.84-.5h-1.27v6.55h.08-.01Z"/><path class="cls-3" d="m235.94,393.48h-31.88v-44.8h14.03v32.56h17.77v12.24h.08Zm-30.02-1.88h28.14v-8.41h-17.85v-32.56h-10.29v41.06h0v-.08h0Z"/><path class="cls-3" d="m253.04,393.48h-13.43v-44.8h13.17c7.22-.6,14.45,1.19,20.66,5.1,5.26,4.26,8.08,10.71,7.74,17.43.34,6.12-2.04,12.07-6.37,16.32-4.68,3.99-11.56,5.95-21.67,5.95h-.11Zm-11.56-1.88h11.56c9.69,0,16.32-1.88,20.4-5.7,3.99-3.82,6.12-9.27,5.78-14.71.34-6.03-2.3-11.9-6.97-15.72-5.87-3.65-12.67-5.26-19.56-4.76h-11.23v40.89h.01Zm11.73-8.41h-1.36v-24.07h1.36c4.07-.34,8.25.6,11.82,2.63,2.8,2.3,4.34,5.87,4.07,9.52.17,2.88-.6,5.78-2.38,8.16-2.46,2.63-6.47,3.82-13.52,3.82h0v-.08h.01Zm.5-22.26v20.4c7.66,0,10.12-1.69,11.48-3.4,1.44-1.96,2.13-4.34,1.96-6.72.34-3.07-.85-6.12-3.23-8.16-3.07-1.79-6.64-2.46-10.21-2.13h0Z"/><g><path class="cls-3" d="m132.65,347.99c-12.84,0-23.3,10.21-23.38,23.04s10.21,23.3,23.04,23.38,23.3-10.21,23.38-23.04v-.17c0-12.75-10.29-23.13-23.04-23.21h0Zm-2.04,25.16v-4.07c2.21,0,3.91,1.88,4.07,4.07h-4.07Zm8.5,0c0-4.68-3.82-8.5-8.5-8.58v-4.07c6.97,0,12.67,5.61,12.84,12.67h-4.34,0Zm8.67-.01c-.08-9.44-7.74-17.01-17.09-17.09v-4.34c11.82,0,21.34,9.6,21.42,21.42h-4.34.01Z"/><path class="cls-3" d="m163.85,372.21v-1.79c0-16.74-13.52-30.27-30.27-30.27h-1.96v4.42h1.96c14.36,0,25.93,11.65,25.93,25.93h0v1.79h4.34v-.08h0Z"/></g></g></g><g><path class="cls-3" d="m244.12,133.54c-45.8-.31-83.2,36.56-83.52,82.36-.31,45.8,36.56,83.2,82.36,83.52,45.8.31,83.2-36.56,83.52-82.36v-.59c0-45.58-36.77-82.62-82.36-82.93h0Zm-7.27,90.1v-14.59c7.86.43,14.16,6.74,14.59,14.59h-14.59Zm30.29,0c-.16-16.72-13.59-30.29-30.29-30.62v-14.59c24.99.21,45.31,20.22,45.9,45.21h-15.61Zm30.88,0c-.31-33.69-27.54-60.91-61.24-61.24v-15.44c42.24.26,76.4,34.44,76.68,76.68h-15.44Z"/><path class="cls-3" d="m355.65,220.3v-6.42c0-59.8-48.5-108.3-108.3-108.3h-7.32v15.76h7.17c51.26,0,92.86,41.55,92.86,92.86h0v6.42l15.6-.26h0v-.05h0Z"/></g></g></g></g></svg>